<?xml version="1.0" encoding="iso-8859-1"?>
<!-- Generator: Adobe Illustrator 16.0.0, SVG Export Plug-In . SVG Version: 6.00 Build 0)  -->
<!DOCTYPE svg PUBLIC "-//W3C//DTD SVG 1.1//EN" "http://www.w3.org/Graphics/SVG/1.1/DTD/svg11.dtd">
<svg version="1.1" id="Capa_1" xmlns="http://www.w3.org/2000/svg" xmlns:xlink="http://www.w3.org/1999/xlink" x="0px" y="0px"
	 width="896.09px" height="896.09px" viewBox="0 0 896.09 896.09" style="enable-background:new 0 0 896.09 896.09;"
	 xml:space="preserve">
<g>
	<g>
		<path d="M448.045,0c-113.817,0-217.569,43.042-296.71,113.214l44.794,30.137c68.558-56.293,156.34-90.149,251.917-90.149
			c218.634,0,396.496,177.124,396.496,394.843c0,217.706-177.861,394.828-396.496,394.828
			c-218.664,0-396.524-177.122-396.524-394.828c0-108.936,44.575-207.696,116.414-279.194l-23.983-48.909
			C55.677,201.817,0,318.422,0,448.045C0,695.094,200.996,896.09,448.045,896.09c247.048,0,448.044-200.996,448.044-448.045
			C896.09,200.97,695.094,0,448.045,0z"/>
		<path d="M95.659,448.045c0,97.409,46.296,185.163,97.845,247.678l25.761-19.499l65.302-82.776l-14.984-28.003l-75.859,52.942
			c-33.116-48.649-51.466-107.145-51.466-170.342c0-72.755,25.759-139.454,68.529-191.767l-19.936-40.679
			C132.357,276.774,95.659,358.239,95.659,448.045z"/>
		<path d="M218.088,189.866l-16.38-11.007l20.646,42.1l7.138,14.548l0,0l114.8,234.224c3.611,16.161,10.612,30.271,20.896,42.059
			c18.158,20.812,44.411,32.762,72.058,32.762h0.026c23.026,0,45.26-8.312,62.68-23.436c19.359-16.847,30.982-40.228,32.68-65.782
			c1.723-25.487-6.537-50.099-23.328-69.364c-10.473-11.992-23.789-20.947-38.203-25.926l-217.788-146.48l0.028-0.013
			l-35.223-23.696L218.088,189.866z"/>
		<path d="M619.781,567.686l-6.154,28.905l69.541,77.911l25.764,21.221c51.547-62.515,94.645-150.269,94.645-247.665
			c0-189.633-165.527-343.375-355.531-343.375c-76.98,0-149.147,25.542-208.107,68.134l35.715,24.022
			c48.54-33.02,107.062-52.478,170.067-52.875c56.989,0.369,111.655,16.504,159.211,43.973
			c88.301,53.258,147.561,149.64,147.561,260.12c0,62.72-18.951,120.887-51.631,169.289L619.781,567.686z"/>
	</g>
</g>
<g>
</g>
<g>
</g>
<g>
</g>
<g>
</g>
<g>
</g>
<g>
</g>
<g>
</g>
<g>
</g>
<g>
</g>
<g>
</g>
<g>
</g>
<g>
</g>
<g>
</g>
<g>
</g>
<g>
</g>
</svg>
